<svg xmlns="http://www.w3.org/2000/svg" xmlns:xlink="http://www.w3.org/1999/xlink" version="1.1" x="0px" y="0px" viewBox="0 0 100 125" style="enable-background:new 0 0 100 100;" xml:space="preserve"><path d="M92.248,9.141c-0.088-0.334-0.265-0.64-0.505-0.878c-0.244-0.246-0.55-0.423-0.882-0.511  c-2.402-0.64-14.975-3.642-26.389,0.079c-0.515,0.158-12.741,4.058-26.71,19.898c-0.115,0.145-0.822,1.036-1.867,2.395  c-2.682-0.107-14.725-0.381-19.627,3.138C10.895,37.12,6.262,49.18,6.068,49.691c-0.157,0.413-0.024,0.88,0.326,1.149  c0.351,0.267,0.836,0.274,1.194,0.017c0.079-0.059,8.104-5.732,15.666,0.085l4.124,4.124c-0.376,2.756-1.667,8.953-4.128,11.148  l-0.79,0.704l10.623,10.623l0.704-0.79c2.192-2.457,8.392-3.751,11.148-4.128l4.124,4.124c5.792,7.533,0.32,15.338,0.084,15.667  c-0.257,0.359-0.25,0.845,0.02,1.194c0.193,0.251,0.489,0.391,0.793,0.391c0.119,0,0.239-0.021,0.354-0.065  c0.512-0.194,12.571-4.828,16.429-10.201c3.52-4.903,3.247-16.952,3.138-19.629c1.374-1.058,2.279-1.776,2.434-1.899  c15.802-13.935,19.701-26.161,19.854-26.659C95.892,24.112,92.888,11.542,92.248,9.141z M9.011,47.827  c1.642-3.726,4.95-10.446,8.424-12.939c3.761-2.701,12.971-2.865,16.965-2.801c-3.538,4.684-8.858,12.043-10.935,16.555  C17.858,44.976,12.194,46.428,9.011,47.827z M33.058,74.689l-7.746-7.746c2.212-2.669,3.329-7.437,3.809-10.133l14.07,14.07  C40.495,71.36,35.727,72.476,33.058,74.689z M65.112,82.565c-2.491,3.47-9.212,6.78-12.939,8.423  c1.4-3.182,2.852-8.845-0.814-14.453c4.508-2.076,11.859-7.39,16.555-10.937C67.978,69.592,67.813,78.803,65.112,82.565z   M90.258,34.938c-0.038,0.121-3.931,12.238-19.231,25.732c-0.149,0.119-14.583,11.563-20.962,14.255L25.075,49.936  c2.692-6.379,14.134-20.811,14.221-20.923C52.824,13.673,64.942,9.78,65.077,9.738c11.127-3.63,23.856-0.43,25.237-0.086  C90.692,11.067,93.891,23.797,90.258,34.938z"/><path d="M30.908,33.203c-1.023,0.341-2.047,0.682-3.071,1.024c-0.62,0.207-0.354,1.192,0.271,0.984  c1.023-0.341,2.047-0.682,3.071-1.023C31.799,33.98,31.533,32.994,30.908,33.203z"/><path d="M29.374,35.562c-1.178,0.28-2.337,0.62-3.48,1.022c-0.615,0.216-0.351,1.202,0.271,0.984  c1.143-0.401,2.302-0.742,3.48-1.022C30.284,36.395,30.013,35.41,29.374,35.562z"/><path d="M27.016,38.923c-0.748,0.28-1.496,0.56-2.244,0.841c-0.609,0.228-0.346,1.215,0.271,0.984  c0.748-0.28,1.496-0.56,2.243-0.841C27.896,39.679,27.632,38.692,27.016,38.923z"/><path d="M25.346,41.64c-1.158,0.402-2.253,0.936-3.274,1.614c-0.545,0.361-0.034,1.246,0.515,0.881  c0.95-0.63,1.953-1.137,3.031-1.511C26.234,42.409,25.969,41.423,25.346,41.64z"/><path d="M23.845,44.769c-0.443,0.171-0.887,0.341-1.331,0.512c-0.607,0.233-0.343,1.22,0.271,0.984  c0.443-0.171,0.887-0.341,1.331-0.512C24.723,45.519,24.46,44.532,23.845,44.769z"/><path d="M65.813,68.821c-0.341,1.024-0.682,2.047-1.024,3.071c-0.208,0.624,0.777,0.892,0.984,0.271  c0.341-1.023,0.682-2.047,1.023-3.071C67.005,68.468,66.02,68.2,65.813,68.821z"/><path d="M63.454,70.355c-0.28,1.178-0.62,2.337-1.022,3.48c-0.218,0.621,0.768,0.888,0.984,0.271  c0.401-1.143,0.741-2.302,1.022-3.48C64.589,69.988,63.606,69.715,63.454,70.355z"/><path d="M61.291,72.909c-0.456,1.389-1.037,2.715-1.746,3.993c-0.319,0.575,0.562,1.09,0.881,0.515  c0.751-1.354,1.366-2.766,1.849-4.237C62.48,72.555,61.495,72.287,61.291,72.909z"/><path d="M59.165,73.633c-0.28,0.748-0.56,1.496-0.841,2.244c-0.231,0.616,0.755,0.882,0.984,0.271  c0.28-0.748,0.56-1.496,0.841-2.244C60.379,73.289,59.393,73.023,59.165,73.633z"/><path d="M56.595,75.165c-0.374,1.077-0.881,2.081-1.511,3.031c-0.364,0.549,0.519,1.06,0.881,0.515  c0.678-1.022,1.212-2.117,1.614-3.274C57.795,74.815,56.81,74.547,56.595,75.165z"/><path d="M54.247,75.883c-0.171,0.444-0.341,0.887-0.512,1.331c-0.236,0.613,0.75,0.879,0.984,0.271  c0.171-0.443,0.341-0.887,0.512-1.331C55.467,75.541,54.481,75.276,54.247,75.883z"/><path d="M30.595,51.502c-0.383-0.526-1.268-0.017-0.881,0.515c1.457,2.002,3.08,3.857,4.883,5.554  c0.478,0.45,1.201-0.27,0.721-0.722C33.579,55.213,32,53.433,30.595,51.502z"/><path d="M33.359,53.916c0.355,0.55,1.239,0.039,0.881-0.515c-1.004-1.553-2.12-3.023-3.345-4.409  c-0.436-0.493-1.155,0.231-0.722,0.721C31.342,51.035,32.402,52.435,33.359,53.916z"/><path d="M33.549,50.842c0.437,0.492,1.157-0.232,0.722-0.721c-0.546-0.614-1.092-1.228-1.638-1.842  c-0.437-0.492-1.157,0.232-0.722,0.722C32.457,49.613,33.003,50.227,33.549,50.842z"/><path d="M32.93,45.317c-0.424-0.502-1.143,0.223-0.721,0.721c1.075,1.272,2.083,2.593,3.028,3.964  c0.37,0.537,1.255,0.028,0.881-0.515C35.124,48.045,34.061,46.655,32.93,45.317z"/><path d="M35.118,47.231c0.417,0.508,1.135-0.218,0.721-0.722c-0.585-0.713-1.17-1.425-1.755-2.138  c-0.417-0.508-1.135,0.218-0.721,0.721C33.948,45.806,34.533,46.519,35.118,47.231z"/><path d="M74.11,12.429c0.347-0.462,0.693-0.924,1.04-1.387c0.394-0.526-0.491-1.035-0.881-0.515  c-0.347,0.462-0.693,0.924-1.04,1.387C72.834,12.44,73.72,12.949,74.11,12.429z"/><path d="M76.353,13.22c0.507-0.751,1.052-1.47,1.64-2.16c0.424-0.497-0.295-1.222-0.721-0.722c-0.643,0.755-1.244,1.544-1.8,2.366  C75.103,13.251,75.987,13.762,76.353,13.22z"/><path d="M78.518,13.564c0.466-0.575,0.932-1.15,1.398-1.725c0.41-0.506-0.308-1.232-0.721-0.722  c-0.466,0.575-0.932,1.15-1.398,1.725C77.387,13.348,78.104,14.074,78.518,13.564z"/><path d="M81.212,13.829c0.347-0.404,0.694-0.809,1.04-1.213c0.425-0.496-0.293-1.221-0.722-0.721  c-0.347,0.404-0.694,0.809-1.04,1.213C80.065,13.604,80.784,14.329,81.212,13.829z"/><path d="M67.629,60.362c-1.786-1.69-3.634-3.308-5.547-4.853c-0.506-0.409-1.233,0.309-0.721,0.721  c1.913,1.545,3.761,3.163,5.547,4.853c0.004,0.004,0.009,0.005,0.014,0.008c-0.143,0.302-0.003,0.748,0.433,0.748  c0.506,0,0.618-0.602,0.345-0.88C67.813,60.783,67.829,60.551,67.629,60.362z"/><path d="M88.034,17.057c0.825,1.319,1.65,2.638,2.475,3.957c0.348,0.555,1.231,0.044,0.881-0.515  c-0.825-1.319-1.65-2.638-2.475-3.957C88.568,15.987,87.684,16.498,88.034,17.057z"/><path d="M90.321,24.673c0.41,0.513,1.128-0.213,0.722-0.722c-1.079-1.35-2.157-2.7-3.236-4.05c-0.41-0.513-1.128,0.213-0.721,0.722  C88.163,21.973,89.242,23.323,90.321,24.673z"/><path d="M86.859,23.278c-0.45-0.48-1.171,0.243-0.722,0.721c1.542,1.644,3.041,3.327,4.495,5.049  c0.424,0.502,1.143-0.223,0.722-0.721C89.899,26.605,88.401,24.922,86.859,23.278z"/><path d="M85.989,26.4c-0.431-0.497-1.15,0.227-0.721,0.722c1.368,1.58,2.736,3.16,4.104,4.74c0.431,0.497,1.15-0.227,0.722-0.722  C88.725,29.561,87.357,27.98,85.989,26.4z"/><path d="M83.297,27.706c-0.451-0.479-1.171,0.243-0.722,0.722c1.879,1.998,3.724,4.027,5.534,6.087  c0.434,0.494,1.154-0.23,0.721-0.722C87.021,31.733,85.176,29.704,83.297,27.706z"/><path d="M83.477,31.514c-0.463-0.466-1.185,0.255-0.721,0.721c1.617,1.627,3.165,3.316,4.646,5.067  c0.425,0.502,1.143-0.223,0.722-0.721C86.643,34.829,85.094,33.14,83.477,31.514z"/><path d="M80.014,31.858c-0.476-0.453-1.198,0.268-0.721,0.721c2.637,2.51,5.154,5.135,7.551,7.875  c0.433,0.495,1.152-0.229,0.722-0.721C85.168,36.993,82.651,34.368,80.014,31.858z"/><path d="M78.637,34.621c-0.47-0.459-1.192,0.262-0.721,0.721c2.58,2.518,5.005,5.176,7.278,7.976  c0.414,0.51,1.132-0.216,0.722-0.721C83.642,39.797,81.217,37.139,78.637,34.621z"/><path d="M78.364,39.054c-0.471-0.458-1.194,0.263-0.721,0.721c1.885,1.833,3.613,3.804,5.169,5.924  c0.385,0.524,1.271,0.015,0.881-0.515C82.085,42.995,80.313,40.949,78.364,39.054z"/><path d="M77.404,42.094c-0.466-0.464-1.188,0.257-0.722,0.721c1.654,1.648,3.237,3.36,4.751,5.137  c0.427,0.501,1.145-0.224,0.722-0.721C80.641,45.454,79.058,43.742,77.404,42.094z"/><path d="M73.968,42.929c-0.474-0.455-1.196,0.266-0.722,0.721c2.042,1.959,3.921,4.066,5.622,6.328  c0.39,0.518,1.276,0.01,0.881-0.515C77.996,47.131,76.074,44.95,73.968,42.929z"/><path d="M71.166,45.387c-0.48-0.447-1.204,0.273-0.721,0.721c2.308,2.146,4.5,4.406,6.574,6.779  c0.433,0.495,1.152-0.229,0.722-0.722C75.665,49.793,73.474,47.533,71.166,45.387z"/><path d="M69.713,48.398c-0.473-0.456-1.195,0.265-0.722,0.721c1.618,1.56,3.236,3.12,4.853,4.68  c0.473,0.456,1.195-0.265,0.722-0.722C72.948,51.518,71.33,49.958,69.713,48.398z"/><path d="M66.199,50.006c-0.529-0.39-1.039,0.495-0.515,0.881c2.383,1.757,4.515,3.791,6.403,6.07  c0.419,0.506,1.138-0.219,0.722-0.721C70.863,53.886,68.653,51.815,66.199,50.006z"/><path d="M63.473,52.038c-0.506-0.41-1.232,0.308-0.722,0.722c2.484,2.011,4.82,4.182,7.009,6.511  c0.451,0.48,1.171-0.243,0.721-0.721C68.293,56.22,65.957,54.049,63.473,52.038z"/><path d="M59.977,57.78c-0.52-0.4-1.029,0.486-0.515,0.881c1.502,1.156,3.005,2.311,4.507,3.466c0.52,0.4,1.029-0.486,0.515-0.881  C62.982,60.091,61.479,58.936,59.977,57.78z"/><path d="M57.382,59.855c-0.544-0.37-1.055,0.514-0.515,0.881c1.444,0.982,2.889,1.965,4.333,2.947  c0.544,0.37,1.055-0.514,0.515-0.881C60.271,61.819,58.826,60.837,57.382,59.855z"/><path d="M55.652,62.276c-0.521-0.399-1.03,0.487-0.515,0.881c0.982,0.751,1.964,1.502,2.947,2.253  c0.521,0.399,1.03-0.487,0.515-0.881C57.617,63.778,56.634,63.027,55.652,62.276z"/><path d="M56.518,66.437c-1.329-0.867-2.658-1.733-3.987-2.6c-0.552-0.36-1.064,0.523-0.515,0.881c1.329,0.867,2.658,1.733,3.987,2.6  C56.555,67.678,57.067,66.795,56.518,66.437z"/><path d="M48.218,64.319c-0.578-0.312-1.093,0.568-0.515,0.881c2.424,1.311,4.615,2.935,6.571,4.876  c0.467,0.463,1.188-0.258,0.721-0.721C52.98,67.354,50.717,65.671,48.218,64.319z"/><path d="M45.422,65.921c-0.544-0.371-1.055,0.513-0.515,0.881c2.491,1.7,4.667,3.752,6.528,6.124  c0.405,0.516,1.123-0.21,0.721-0.721C50.241,69.763,47.984,67.669,45.422,65.921z"/><path d="M72.197,38.162c2.832-3.626,2.321-9.603-1.034-12.718c-3.571-3.315-8.788-2.722-12.053,0.637  c-0.916,0.942,0.526,2.387,1.443,1.443c6.958-7.159,15.963,4.607,9.047,10.346c-5.306,4.403-12.147-1.147-10.079-7.313  c0.419-1.248-1.552-1.783-1.968-0.542C54.56,38.941,66.22,45.815,72.197,38.162z"/><text x="0" y="115" fill="#000000" font-size="5px" font-weight="bold" font-family="'Helvetica Neue', Helvetica, Arial-Unicode, Arial, Sans-serif">Created by Alina Oleynik</text><text x="0" y="120" fill="#000000" font-size="5px" font-weight="bold" font-family="'Helvetica Neue', Helvetica, Arial-Unicode, Arial, Sans-serif">from the Noun Project</text></svg>